<svg width="1280" height="355" viewBox="0 0 1280 355" fill="none" xmlns="http://www.w3.org/2000/svg">
<g id="&#208;&#147;&#208;&#187;&#208;&#176;&#208;&#178;&#208;&#189;&#208;&#176;&#209;&#143;">
<g id="Group 10">
<g id="Frame 70">
<g id="Frame 75" clip-path="url(#clip0_102_341)">
<g id="Frame 67">
<path id="Portal" fill-rule="evenodd" clip-rule="evenodd" d="M823.5 127C823.435 109.073 808.909 94.5602 791 94.5602C808.949 94.5602 823.5 79.9823 823.5 62C823.565 79.9272 838.091 94.4398 856 94.4398C838.05 94.4398 823.5 109.018 823.5 127Z" fill="white"/>
<path id="Portal_2" fill-rule="evenodd" clip-rule="evenodd" d="M753 199C752.968 190.174 745.817 183.03 737 183.03C745.837 183.03 753 175.853 753 167C753.032 175.826 760.183 182.97 769 182.97C760.163 182.97 753 190.147 753 199Z" fill="white"/>
<path id="Portal_3" fill-rule="evenodd" clip-rule="evenodd" d="M895 142C894.968 133.174 887.817 126.03 879 126.03C887.837 126.03 895 118.853 895 110C895.032 118.826 902.183 125.97 911 125.97C902.163 125.97 895 133.147 895 142Z" fill="white"/>
</g>
<path id="Vector 10" d="M1064.41 415C1066.38 415 1068.35 415 1116.42 400.287C1164.48 385.575 1258.57 356.15 1311.48 336.238C1364.39 316.327 1373.25 306.82 1379.05 298.528C1384.85 290.235 1387.32 283.445 1364.2 268.629C1341.08 253.814 1292.31 231.179 1200.68 222.688C1109.05 214.197 976.037 220.534 895.938 220.63C815.839 220.726 792.685 214.389 772.136 207.729C733.917 195.341 715.102 184.566 712.863 179.319C710.938 174.808 712.594 170.382 714.326 166.506C716.491 161.661 722.029 158.035 772.315 138.542C819.812 120.131 913.248 87.3605 964.662 68.2925C1016.08 49.2246 1022.97 45.6031 1027.51 43.0584C1032.05 40.5137 1034.02 39.1556 1035.28 37.5506C1037.69 34.4887 1037.54 29.5531 1036.31 23.8533C1034.82 16.9607 1027.12 12.1724 981.262 -6.64859C938.773 -24.0863 855.594 -53.9892 808.771 -72.5633C761.948 -91.1374 753.573 -96.5697 749.505 -100.5C745.437 -104.43 745.929 -106.694 746.922 -108.539C749.393 -111.742 755.349 -114.952 764.53 -117.922C769.278 -119.081 774.204 -119.534 779.28 -120" stroke="url(#paint2_linear_102_341)" stroke-width="109" stroke-linecap="round"/>
</g>
</g>
</g>
</g>
<defs>
<linearGradient id="paint0_linear_102_341" x1="643.184" y1="-1.31255e-05" x2="643.184" y2="571.55" gradientUnits="userSpaceOnUse">
<stop stop-color="#F24822"/>
<stop offset="1" stop-color="#BD2915"/>
</linearGradient>
<linearGradient id="paint1_linear_102_341" x1="643.184" y1="-1.31255e-05" x2="643.184" y2="571.55" gradientUnits="userSpaceOnUse">
<stop stop-color="#F24822"/>
<stop offset="1" stop-color="#BD2915"/>
</linearGradient>
<linearGradient id="paint2_linear_102_341" x1="1047.5" y1="-120" x2="1047.5" y2="415" gradientUnits="userSpaceOnUse">
<stop stop-color="white"/>
<stop offset="1" stop-color="white" stop-opacity="0"/>
</linearGradient>
<clipPath id="clip0_102_341">
<rect width="1280" height="355" fill="white"/>
</clipPath>
</defs>
</svg>
